# xmcd
#
# Track frame offsets:
# 150
# 17777
# 40242
# 59882
# 82850
# 99930
# 124840
# 147288
# 172814
#
# Disc length: 2486 seconds
#
# Revision: 0
# Processed by: cddbd v1.5.1PL0 Copyright (c) Steve Scherf et al.
# Submitted via: Audion 3.0.0 (http://www.panic.com/audion/)
#
DISCID=7009b409
DTITLE=3rd Time - 01
DYEAR=1900
DGENRE=
TTITLE0=Agua de Beber
TTITLE1=Isn't she Lovely
TTITLE2=Summertime
TTITLE3=Body and Soul
TTITLE4=Straight no Chaser
TTITLE5=So What
TTITLE6=Caravan
TTITLE7='Round Midnight
TTITLE8=Beautiful Love
EXTD=
EXTT0=
EXTT1=
EXTT2=
EXTT3=
EXTT4=
EXTT5=
EXTT6=
EXTT7=
EXTT8=
PLAYORDER=
